<?xml version="1.0" encoding="utf-8"?>
<!-- Generator: Adobe Illustrator 19.2.0, SVG Export Plug-In . SVG Version: 6.00 Build 0)  -->
<svg version="1.1" id="Layer_1" xmlns="http://www.w3.org/2000/svg" xmlns:xlink="http://www.w3.org/1999/xlink" x="0px" y="0px"
	 width="180px" height="180px" viewBox="0 0 180 180" style="enable-background:new 0 0 180 180;" xml:space="preserve">
<style type="text/css">
	.st0{fill:#FFFFFF;}
	.st1{enable-background:new    ;}
	.st2{fill:#0080C8;}
</style>
<circle class="st0" cx="90" cy="90" r="90"/>
<g id="marker" class="st1">
</g>
<g>
	<g>
		<g>
			<path class="st2" d="M90.6,105.8c-10.5,0-20.3-0.8-27.7-2.3c-9-1.8-13.2-4.2-13.2-7.7s4.2-5.9,13.2-7.7
				c7.4-1.5,17.3-2.3,27.7-2.3c10.5,0,20.3,0.8,27.7,2.3c9,1.8,13.2,4.2,13.2,7.7s-4.2,5.9-13.2,7.7C110.9,105,101,105.8,90.6,105.8
				z M54.6,95.8c2.2,1.9,14.3,5.2,36,5.2s33.8-3.3,36-5.2c-2.2-1.9-14.3-5.2-36-5.2C68.9,90.6,56.8,93.9,54.6,95.8z"/>
		</g>
		<g>
			<path class="st2" d="M91.7,173.1c-6.2,0-26.3-0.6-26.4-7.9c-0.2-1.7-3.7-16.5-6.8-29.5c-6.3-26.4-8.9-37.8-8.9-39.8
				c0-9.7,37.7-9.9,42-9.9c10.5,0,20.3,0.8,27.7,2.3c9,1.8,13.2,4.2,13.2,7.7c0,2.7-6.2,31.3-8.4,41.1c-0.3,1.3-1.5,2.1-2.8,1.8
				s-2.1-1.5-1.8-2.8c4.2-18.9,8-37,8.3-39.8c-1.6-1.9-13.7-5.4-36.2-5.4c-22,0-35.5,3.4-37.3,5.5c0.4,3.1,5.2,23.5,8.8,38.5
				c5,21.3,6.7,28.4,6.9,30.3c1,1.2,7.6,3.5,21.7,3.5c13.8,0,20.1-2.3,21-3.5c0-0.5,0.2-1.2,0.7-2.8c0.6-2,1.5-5,2.2-8.4
				c0.3-1.3,1.5-2.1,2.8-1.8s2.1,1.5,1.8,2.8c-0.8,3.6-1.7,6.7-2.3,8.8c-0.2,0.7-0.5,1.5-0.5,1.8C117.1,172.3,99.3,173.1,91.7,173.1
				z"/>
		</g>
		<g>
			<path class="st2" d="M118.8,148.4c-11.3,0-15.9-13.3-19.4-23.3c-1.3-3.8-3.6-10.2-5-10.5c-1.5-0.3-2.7-0.1-3.2,0.5
				c-0.3,0.4-0.3,0.8-0.2,1.1c0.1,0.4,0.4,0.6,0.8,0.6c1.3,0.2,2.2,1.4,2,2.7c-0.2,1.3-1.4,2.2-2.7,2c-2.1-0.3-3.8-1.7-4.5-3.6
				c-0.8-2-0.4-4.2,0.9-5.8c0.9-1.1,3.2-2.9,7.6-2.1c4.2,0.7,6.1,6.4,8.6,13.6c4.4,12.6,8.4,22,17.8,19.7c2.9-0.7,4.8-2.1,5.7-4.2
				c2.4-5.5-2-15.1-3.8-18.3c-0.7-1.1-0.3-2.6,0.9-3.2c1.1-0.7,2.6-0.3,3.2,0.9c0.3,0.6,7.9,13.7,4.1,22.6c-1.5,3.5-4.5,5.9-8.9,7
				C121.4,148.3,120,148.4,118.8,148.4z"/>
		</g>
	</g>
	<g>
		<path class="st2" d="M84.5,57.8c-0.2,0-0.5-0.1-0.7-0.2c-0.4-0.3-0.5-0.7-0.5-1.2l0.9-5.5l-4-3.9c-0.3-0.3-0.4-0.8-0.3-1.2
			s0.5-0.7,1-0.8l5.5-0.8l2.5-5c0.2-0.4,0.6-0.7,1.1-0.7s0.9,0.3,1.1,0.7l2.5,5l5.5,0.8c0.4,0.1,0.8,0.4,1,0.8
			c0.1,0.4,0,0.9-0.3,1.2l-4,3.9l0.9,5.5c0.1,0.4-0.1,0.9-0.5,1.2s-0.8,0.3-1.2,0.1L90,55l-4.9,2.6C84.9,57.7,84.7,57.8,84.5,57.8z
			 M83.6,46.9l2.7,2.7c0.3,0.3,0.4,0.7,0.3,1L86,54.4l3.4-1.8c0.3-0.2,0.8-0.2,1.1,0l3.4,1.8l-0.6-3.8c-0.1-0.4,0.1-0.8,0.3-1
			l2.7-2.7l-3.8-0.5c-0.4-0.1-0.7-0.3-0.9-0.6L90,42.3l-1.7,3.4c-0.2,0.3-0.5,0.6-0.9,0.6L83.6,46.9z"/>
	</g>
	<g>
		<path class="st2" d="M61.9,62.2c-0.2,0-0.5-0.1-0.7-0.2c-0.4-0.3-0.5-0.7-0.5-1.2l0.9-5.5l-4-3.9c-0.3-0.3-0.4-0.8-0.3-1.2
			c0.1-0.4,0.5-0.7,1-0.8l5.5-0.8l2.5-5c0.2-0.4,0.6-0.7,1.1-0.7s0.9,0.3,1.1,0.7l2.5,5l5.5,0.8c0.4,0.1,0.8,0.4,1,0.8
			c0.1,0.4,0,0.9-0.3,1.2l-4,3.9l0.9,5.5c0.1,0.4-0.1,0.9-0.5,1.2s-0.8,0.3-1.2,0.1l-4.9-2.6l-5,2.5C62.3,62.1,62.1,62.2,61.9,62.2z
			 M61.1,51.4l2.7,2.7c0.3,0.3,0.4,0.7,0.3,1l-0.6,3.8l3.4-1.8c0.3-0.2,0.8-0.2,1.1,0l3.4,1.8l-0.6-3.8c-0.1-0.4,0.1-0.8,0.3-1
			l2.7-2.7L70,50.8c-0.4-0.1-0.7-0.3-0.9-0.6l-1.7-3.4l-1.7,3.4c-0.2,0.3-0.5,0.6-0.9,0.6L61.1,51.4z"/>
	</g>
	<g>
		<path class="st2" d="M41.4,77c-0.2,0-0.5-0.1-0.7-0.2c-0.4-0.3-0.5-0.7-0.5-1.2l0.9-5.5l-4-3.9c-0.3-0.3-0.4-0.8-0.3-1.2
			c0.1-0.4,0.5-0.7,1-0.8l5.5-0.8l2.5-5c0.2-0.4,0.6-0.7,1.1-0.7s0.9,0.3,1.1,0.7l2.5,5l5.5,0.8c0.4,0.1,0.8,0.4,1,0.8
			c0.1,0.4,0,0.9-0.3,1.2l-4,3.9l0.9,5.5c0.1,0.4-0.1,0.9-0.5,1.2c-0.4,0.3-0.8,0.3-1.2,0.1L47,74.3l-4.9,2.6
			C41.7,76.9,41.5,77,41.4,77z M40.5,66.2l2.7,2.7c0.3,0.3,0.4,0.7,0.3,1l-0.6,3.8l3.4-1.8c0.3-0.2,0.8-0.2,1.1,0l3.4,1.8l-0.6-3.8
			c-0.1-0.4,0.1-0.8,0.3-1l2.7-2.7l-3.8-0.5c-0.4-0.1-0.7-0.3-0.9-0.6l-1.7-3.4L45.2,65c-0.2,0.3-0.5,0.6-0.9,0.6L40.5,66.2z"/>
	</g>
	<g>
		<path class="st2" d="M107.1,62.8c-0.2,0-0.5-0.1-0.7-0.2c-0.4-0.3-0.5-0.7-0.5-1.2l0.9-5.5l-4-3.9c-0.3-0.3-0.4-0.8-0.3-1.2
			s0.5-0.7,1-0.8l5.5-0.8l2.5-5c0.2-0.4,0.6-0.7,1.1-0.7s0.9,0.3,1.1,0.7l2.5,5l5.5,0.8c0.4,0.1,0.8,0.4,1,0.8
			c0.1,0.4,0,0.9-0.3,1.2l-4,3.9l0.9,5.5c0.1,0.4-0.1,0.9-0.5,1.2s-0.8,0.3-1.2,0.1l-4.9-2.6l-4.9,2.6
			C107.5,62.8,107.3,62.8,107.1,62.8z M106.2,52l2.7,2.7c0.3,0.3,0.4,0.7,0.3,1l-0.6,3.8l3.4-1.8c0.3-0.2,0.8-0.2,1.1,0l3.4,1.8
			l-0.6-3.8c-0.1-0.4,0.1-0.8,0.3-1l2.7-2.7l-3.8-0.5c-0.4-0.1-0.7-0.3-0.9-0.6l-1.7-3.4l-1.7,3.4c-0.2,0.3-0.5,0.6-0.9,0.6
			L106.2,52z"/>
	</g>
	<g>
		<path class="st2" d="M127.6,77.3c-0.2,0-0.5-0.1-0.7-0.2c-0.4-0.3-0.5-0.7-0.5-1.2l0.9-5.5l-4-3.9c-0.3-0.3-0.4-0.8-0.3-1.2
			c0.1-0.4,0.5-0.7,1-0.8l5.5-0.8l2.5-5c0.2-0.4,0.6-0.7,1.1-0.7s0.9,0.3,1.1,0.7l2.5,5l5.5,0.8c0.4,0.1,0.8,0.4,1,0.8
			c0.1,0.4,0,0.9-0.3,1.2l-4,3.9l0.9,5.5c0.1,0.4-0.1,0.9-0.5,1.2c-0.4,0.3-0.8,0.3-1.2,0.1l-4.9-2.6l-4.9,2.6
			C128,77.2,127.8,77.3,127.6,77.3z M126.8,66.4l2.7,2.7c0.3,0.3,0.4,0.7,0.3,1l-0.6,3.8l3.4-1.8c0.3-0.2,0.8-0.2,1.1,0l3.4,1.8
			l-0.6-3.8c-0.1-0.4,0.1-0.8,0.3-1l2.7-2.7l-3.8-0.5c-0.4-0.1-0.7-0.3-0.9-0.6l-1.7-3.4l-1.7,3.4c-0.2,0.3-0.5,0.6-0.9,0.6
			L126.8,66.4z"/>
	</g>
</g>
</svg>
