<?xml version="1.0" encoding="utf-8"?>
<!-- Generator: Adobe Illustrator 19.2.0, SVG Export Plug-In . SVG Version: 6.00 Build 0)  -->
<svg version="1.1" id="Layer_1" xmlns="http://www.w3.org/2000/svg" xmlns:xlink="http://www.w3.org/1999/xlink" x="0px" y="0px"
	 width="180px" height="180px" viewBox="0 0 180 180" style="enable-background:new 0 0 180 180;" xml:space="preserve">
<style type="text/css">
	.st0{fill:#FFFFFF;}
	.st1{fill:#0080C8;}
	.st2{enable-background:new    ;}
</style>
<g>
	<circle class="st0" cx="90" cy="90" r="90"/>
	<g>
		<g>
			<path class="st1" d="M127.7,56.9c-10-10-23.5-15.6-38-15.6s-27.9,5.6-38,15.6s-15.6,23.5-15.6,38c0,12.4,8.8,29.2,26.2,50.1
				c12.8,15.4,25.9,27.3,26.1,27.4l1.2,1.1l1.2-1.1c0.1-0.1,13.1-12.1,26.1-27.4c17.4-20.8,26.2-37.6,26.2-50.1
				C143.3,80.4,137.7,66.9,127.7,56.9z M89.7,166.5c-7.6-7.2-48.4-46.8-48.4-71.3c0-27.1,21.2-48.4,48.4-48.4
				c27.1,0,48.4,21.2,48.4,48.4C138.1,119.6,97.4,159.3,89.7,166.5z"/>
		</g>
		<g>
			<g>
				<g>
					<rect x="52.3" y="105.1" class="st1" width="60.1" height="2.4"/>
				</g>
				<g>
					<path class="st1" d="M52.1,103.6l1.2-1.8C67,81.5,83.6,74.1,95.2,71.5c12.6-2.9,21.7-0.9,22.1-0.8l1,0.2v25.7h-1.1
						c-4.4,0.2-4.6,5.5-4.6,5.7v1.1L52.1,103.6z M108.7,72.3c-3.5,0-8,0.4-13,1.4c-10.7,2.6-26.1,9.3-39,27.5h53.7
						c0.4-2.6,1.9-6,5.6-6.8V72.8C114.6,72.6,112.1,72.3,108.7,72.3z"/>
				</g>
				<g>
					<path class="st1" d="M98,94.7c-0.7,0-1.4,0-2.2-0.1c-1,0-2.2-0.1-3.4-0.1c-3.1,0-5.3-0.6-6.4-1.7c-0.2-0.2-0.3-0.4-0.4-0.5
						c-1.8-0.1-5.3-0.6-6.5-2.9c-0.7-1.3-0.4-3,0.9-4.7c4.6-6.4,18.6-8.4,23.3-9.1c2.6-0.4,4.6,0,5.8,1c1.2,1,1.4,2.4,1.4,2.5
						l0.7,7.2v0.2c-0.8,4.1-5.5,4.9-7.6,5.1C102.9,94.2,100.7,94.7,98,94.7z M87.7,91c0.1,0.2,0.9,1,4.7,1c1.2,0,2.5,0.1,3.5,0.1
						c4.6,0.2,5.2,0,5.3-1.8l0.1-1.1h1.1c0.1,0,5.5,0.1,6.3-3l-0.6-7c0,0-0.1-0.5-0.6-0.9c-0.6-0.4-1.6-0.9-4-0.5
						c-11.7,1.7-19,4.4-21.6,8.1c-0.5,0.7-1,1.6-0.7,2.2c0.6,1,3.4,1.6,5.2,1.6h1.3L87.7,91z"/>
				</g>
				<g>
					<path class="st1" d="M87.6,91.6l-2.1-1.1c2-3.8,4.2-5,9.8-5c5.7,0,8.1,4.1,8.2,4.3l-2.1,1.1l1-0.6l-1,0.6
						c-0.1-0.1-1.8-3.1-6.1-3.1C90.5,87.9,89.2,88.6,87.6,91.6z"/>
				</g>
				<g>
					<path class="st1" d="M117.4,81.8c-0.2,0-0.3,0-0.4,0l0.4-2.4c0.2,0,1-0.1,1.5-0.6c0.4-0.4,0.6-0.9,0.5-1.4
						c-0.1-1.5-2.6-1.6-2.6-1.6l0.1-2.4c1.6,0,4.7,0.9,5,3.8c0.1,1.7-0.6,2.8-1.2,3.4C119.5,81.4,118.2,81.8,117.4,81.8z"/>
				</g>
				<g>
					<polygon class="st1" points="74.5,82.1 72.1,82.1 72.1,75.1 78.3,75.1 78.3,79.8 76,79.8 76,77.5 74.5,77.5 					"/>
				</g>
				<g>
					<path class="st1" d="M127.3,96.7c-0.7,0-1.1-0.6-1.1-1.1c0-0.1,0-5.6-1-10.2c-0.9-4.2-4.5-6.3-4.5-6.3c-0.6-0.3-0.8-1-0.5-1.6
						s1-0.8,1.6-0.5c0.2,0.1,4.6,2.6,5.7,7.8c1,4.9,1,10.5,1,10.8C128.5,96.2,128,96.7,127.3,96.7z"/>
				</g>
			</g>
		</g>
		<title>Untitled-1</title>
	</g>
</g>
<g id="marker" class="st2">
</g>
</svg>
