<?xml version="1.0" encoding="utf-8"?>
<!-- Generator: Adobe Illustrator 19.2.0, SVG Export Plug-In . SVG Version: 6.00 Build 0)  -->
<svg version="1.1" id="Layer_1" xmlns="http://www.w3.org/2000/svg" xmlns:xlink="http://www.w3.org/1999/xlink" x="0px" y="0px"
	 width="180px" height="180px" viewBox="0 0 180 180" style="enable-background:new 0 0 180 180;" xml:space="preserve">
<style type="text/css">
	.st0{fill:#FFFFFF;}
	.st1{enable-background:new    ;}
	.st2{fill:#0080C8;}
</style>
<circle class="st0" cx="90" cy="90" r="90"/>
<g id="marker" class="st1">
</g>
<g>
	<g>
		<path class="st2" d="M157.4,129.9l-10.2-5.1l-0.7-0.4l-0.8,0.2L137,127l0.9,3l-2.8-2.5l-0.9-0.8l-1.1,0.3l-27-75.2l-5.3,1.4
			l27.1,75.5l-0.8,0.3v1.4v3.8l-1.2-2.6l-24.5,9l-1.2,0.5v1.3v5.3v1.1l1,0.6l12.6,5.5l0.9,0.5l0.9-0.4l40.8-15.6l1.3-0.5v-1.3v-4.8
			L157.4,129.9z M146,128.7l5.5,2.7l-8.7,3.1l-4.2-3.8L146,128.7z M127.1,135.5L127,140l-12.5,4.8l-7-2.3L127.1,135.5z M153.7,136.4
			l-38.6,14.8l-10.7-4.4v-1.5l9.1,3.4l0.9,0.5l0.9-0.4l14.6-5.7l1.3-0.5v-1.3l0.1-9.4l1.9-0.6l7.7,7l0.9,0.8l1.2-0.4l10.6-3.8
			L153.7,136.4L153.7,136.4z"/>
		<path class="st2" d="M101.3,136.1V135v-11.9v-0.4l-0.2-0.4c-1-2.3-2.1-4.5-3.4-6.5C91.5,106.4,82,100.5,71.4,98
			c-2.1-0.5-4.2-0.8-6.3-1.1v-6.7h-2.7V78.5l0,0c0.1-3.7-1.8-7.2-3.9-11.1C55.2,61.1,51,53.3,58,43.9c2.2-2.9,5.3-4.9,8.8-6.1
			c3.7-1.2,7.8-1.5,11.9-0.9s8.1,2,11.4,4.3c3.5,2.3,6.3,5.6,7.7,9.6l7.8-2.5c-2.1-5.7-5.9-10.3-10.8-13.5c-4.4-3-9.6-4.9-15-5.6
			C74.5,28.5,69,28.8,64,30.5c-5.1,1.7-9.7,4.7-12.9,9c-9.9,13.3-4.4,23.4,0,31.6c1.6,3,3,5.7,3,7.4v0.1v11.7H52v6.9
			c-4.5,0.6-8.9,1.7-13.1,3.3c-2.9,1.1-5.8,2.5-8.5,4.1l-1,0.6v1.1v7.5h4.1v-6.4c2.2-1.2,4.5-2.3,6.9-3.2c9.7-3.7,20.4-4.5,30.1-2.3
			c9.6,2.2,18.2,7.5,23.7,16.1c0.9,1.5,1.8,3,2.6,4.7c-2.5,1.1-8,2-14,2.5c-8.2,0.7-17.1,0.8-20.8,0l-1.2,5.1
			c4.2,0.9,13.8,0.9,22.5,0.1c5.3-0.5,10.3-1.3,13.9-2.4v5.9c-4.3,2.4-9.5,3.7-15.3,4.3c-6.4,0.6-13.5,0.4-21.1-0.5l-0.5,3.9
			c7.9,0.9,15.3,1.2,22,0.6c6.8-0.7,12.9-2.4,18-5.4L101.3,136.1z"/>
	</g>
</g>
<path class="st2" d="M55.1,138.2c1.9-2.6,2.9-6,2.9-9.6c0-3.6-1.1-7.1-3-9.7c-2.1-2.8-4.9-4.4-7.9-4.4l-7.5,0.3h-0.1
	c-0.2,0-0.5,0-0.7,0c-3,0-5.9,1.5-7.9,4.4c-1.9,2.6-3,6.1-3,9.7c0,3.6,1.1,7.1,3,9.7c1.8,2.5,4.3,4,7,4.3l0.9,0.1l9.8-0.5
	C51.1,142.2,53.4,140.7,55.1,138.2z M43.8,136.9c-1.4,1.9-3.2,2.9-5.1,2.9c-1.9,0-3.7-1-5.1-2.9c-1.5-2.1-2.4-4.9-2.4-7.9
	s0.8-5.8,2.4-7.9c1.4-1.9,3.2-3,5.1-3c1.9,0,3.7,1,5.1,2.9c1.5,2.1,2.4,4.9,2.4,7.9C46.2,131.9,45.4,134.8,43.8,136.9L43.8,136.9z
	 M52.3,136.5c-1.1,1.5-2.4,2.5-3.9,2.9l-2.5,0.7l1.3-2.1c1.6-2.5,2.4-5.7,2.4-8.9c0-3.6-1-6.9-2.9-9.6l-1.4-1.9l2.3,0.3
	c1.6,0.2,3.1,1.3,4.3,2.9c1.5,2.1,2.4,4.9,2.4,7.9C54.5,131.6,53.7,134.4,52.3,136.5L52.3,136.5z"/>
</svg>
